<svg xmlns:xlink="http://www.w3.org/1999/xlink" width="24.145ex" height="3.343ex" style="font-size: 15px; vertical-align: -1.005ex;" viewBox="0 -1006.6 10395.8 1439.2" role="img" focusable="false" xmlns="http://www.w3.org/2000/svg">
<defs>
<path stroke-width="1" id="E1-MJMATHI-3C9" d="M495 384Q495 406 514 424T555 443Q574 443 589 425T604 364Q604 334 592 278T555 155T483 38T377 -11Q297 -11 267 66Q266 68 260 61Q201 -11 125 -11Q15 -11 15 139Q15 230 56 325T123 434Q135 441 147 436Q160 429 160 418Q160 406 140 379T94 306T62 208Q61 202 61 187Q61 124 85 100T143 76Q201 76 245 129L253 137V156Q258 297 317 297Q348 297 348 261Q348 243 338 213T318 158L308 135Q309 133 310 129T318 115T334 97T358 83T393 76Q456 76 501 148T546 274Q546 305 533 325T508 357T495 384Z"></path>
<path stroke-width="1" id="E1-MJMAIN-223C" d="M55 166Q55 241 101 304T222 367Q260 367 296 349T362 304T421 252T484 208T554 189Q616 189 655 236T694 338Q694 350 698 358T708 367Q722 367 722 334Q722 260 677 197T562 134H554Q517 134 481 152T414 196T355 248T292 293T223 311Q179 311 145 286Q109 257 96 218T80 156T69 133Q55 133 55 166Z"></path>
<path stroke-width="1" id="E1-MJCAL-4E" d="M343 705Q358 705 358 698Q360 696 370 658T411 524T484 319Q536 174 590 82L595 73L615 152Q646 274 683 407Q729 571 752 637T799 727Q852 780 937 788Q939 788 947 788T958 789H962Q979 789 979 765Q979 722 951 692Q942 683 924 683Q888 681 859 672T818 654T803 639Q784 608 708 322T631 15Q631 14 630 15Q630 17 629 15Q628 14 628 12Q621 -4 601 -17T560 -31Q550 -31 546 -28T530 -7Q484 67 458 123T398 272Q352 392 314 514L306 535V534Q306 533 296 488T272 379T234 239T185 100T127 -7T61 -50Q34 -50 4 -34T-27 8Q-27 33 -12 61T18 90Q21 90 36 77T87 57H92Q109 57 123 78T162 173Q206 299 232 417T265 599T276 667Q284 681 304 693T343 705Z"></path>
<path stroke-width="1" id="E1-MJMAIN-28" d="M94 250Q94 319 104 381T127 488T164 576T202 643T244 695T277 729T302 750H315H319Q333 750 333 741Q333 738 316 720T275 667T226 581T184 443T167 250T184 58T225 -81T274 -167T316 -220T333 -241Q333 -250 318 -250H315H302L274 -226Q180 -141 137 -14T94 250Z"></path>
<path stroke-width="1" id="E1-MJMATHBI-3BC" d="M294 -8Q265 -8 244 -5T213 1T201 4Q200 4 192 -32T172 -111T155 -168Q134 -211 86 -211Q62 -211 48 -196T34 -158Q37 -144 103 123T174 404Q182 424 201 438T244 452Q271 452 284 436T298 404Q298 392 267 269T235 114Q235 43 305 43Q342 43 375 68T418 110Q420 112 455 253T492 397Q514 444 562 444Q587 444 601 429T615 397Q615 387 599 320T563 178T542 93Q540 81 540 72Q540 42 558 42Q580 42 596 75Q606 94 616 134Q621 155 624 158T646 162H651H662Q682 162 682 148Q681 142 679 132T665 94T641 47T602 9T548 -8Q523 -8 502 -3T468 11T446 27T432 40L429 46Q367 -8 294 -8Z"></path>
<path stroke-width="1" id="E1-MJMAIN-2C" d="M78 35T78 60T94 103T137 121Q165 121 187 96T210 8Q210 -27 201 -60T180 -117T154 -158T130 -185T117 -194Q113 -194 104 -185T95 -172Q95 -168 106 -156T131 -126T157 -76T173 -3V9L172 8Q170 7 167 6T161 3T152 1T140 0Q113 0 96 17Z"></path>
<path stroke-width="1" id="E1-MJMAIN-73" d="M295 316Q295 356 268 385T190 414Q154 414 128 401Q98 382 98 349Q97 344 98 336T114 312T157 287Q175 282 201 278T245 269T277 256Q294 248 310 236T342 195T359 133Q359 71 321 31T198 -10H190Q138 -10 94 26L86 19L77 10Q71 4 65 -1L54 -11H46H42Q39 -11 33 -5V74V132Q33 153 35 157T45 162H54Q66 162 70 158T75 146T82 119T101 77Q136 26 198 26Q295 26 295 104Q295 133 277 151Q257 175 194 187T111 210Q75 227 54 256T33 318Q33 357 50 384T93 424T143 442T187 447H198Q238 447 268 432L283 424L292 431Q302 440 314 448H322H326Q329 448 335 442V310L329 304H301Q295 310 295 316Z"></path>
<path stroke-width="1" id="E1-MJMAIN-6F" d="M28 214Q28 309 93 378T250 448Q340 448 405 380T471 215Q471 120 407 55T250 -10Q153 -10 91 57T28 214ZM250 30Q372 30 372 193V225V250Q372 272 371 288T364 326T348 362T317 390T268 410Q263 411 252 411Q222 411 195 399Q152 377 139 338T126 246V226Q126 130 145 91Q177 30 250 30Z"></path>
<path stroke-width="1" id="E1-MJMAIN-66" d="M273 0Q255 3 146 3Q43 3 34 0H26V46H42Q70 46 91 49Q99 52 103 60Q104 62 104 224V385H33V431H104V497L105 564L107 574Q126 639 171 668T266 704Q267 704 275 704T289 705Q330 702 351 679T372 627Q372 604 358 590T321 576T284 590T270 627Q270 647 288 667H284Q280 668 273 668Q245 668 223 647T189 592Q183 572 182 497V431H293V385H185V225Q185 63 186 61T189 57T194 54T199 51T206 49T213 48T222 47T231 47T241 46T251 46H282V0H273Z"></path>
<path stroke-width="1" id="E1-MJMAIN-74" d="M27 422Q80 426 109 478T141 600V615H181V431H316V385H181V241Q182 116 182 100T189 68Q203 29 238 29Q282 29 292 100Q293 108 293 146V181H333V146V134Q333 57 291 17Q264 -10 221 -10Q187 -10 162 2T124 33T105 68T98 100Q97 107 97 248V385H18V422H27Z"></path>
<path stroke-width="1" id="E1-MJMAIN-70" d="M36 -148H50Q89 -148 97 -134V-126Q97 -119 97 -107T97 -77T98 -38T98 6T98 55T98 106Q98 140 98 177T98 243T98 296T97 335T97 351Q94 370 83 376T38 385H20V408Q20 431 22 431L32 432Q42 433 61 434T98 436Q115 437 135 438T165 441T176 442H179V416L180 390L188 397Q247 441 326 441Q407 441 464 377T522 216Q522 115 457 52T310 -11Q242 -11 190 33L182 40V-45V-101Q182 -128 184 -134T195 -145Q216 -148 244 -148H260V-194H252L228 -193Q205 -192 178 -192T140 -191Q37 -191 28 -194H20V-148H36ZM424 218Q424 292 390 347T305 402Q234 402 182 337V98Q222 26 294 26Q345 26 384 80T424 218Z"></path>
<path stroke-width="1" id="E1-MJMAIN-6C" d="M42 46H56Q95 46 103 60V68Q103 77 103 91T103 124T104 167T104 217T104 272T104 329Q104 366 104 407T104 482T104 542T103 586T103 603Q100 622 89 628T44 637H26V660Q26 683 28 683L38 684Q48 685 67 686T104 688Q121 689 141 690T171 693T182 694H185V379Q185 62 186 60Q190 52 198 49Q219 46 247 46H263V0H255L232 1Q209 2 183 2T145 3T107 3T57 1L34 0H26V46H42Z"></path>
<path stroke-width="1" id="E1-MJMAIN-75" d="M383 58Q327 -10 256 -10H249Q124 -10 105 89Q104 96 103 226Q102 335 102 348T96 369Q86 385 36 385H25V408Q25 431 27 431L38 432Q48 433 67 434T105 436Q122 437 142 438T172 441T184 442H187V261Q188 77 190 64Q193 49 204 40Q224 26 264 26Q290 26 311 35T343 58T363 90T375 120T379 144Q379 145 379 161T380 201T380 248V315Q380 361 370 372T320 385H302V431Q304 431 378 436T457 442H464V264Q464 84 465 81Q468 61 479 55T524 46H542V0Q540 0 467 -5T390 -11H383V58Z"></path>
<path stroke-width="1" id="E1-MJMATHBI-3C1" d="M307 -8Q277 -8 251 0T215 14L205 20Q203 18 193 -25T171 -114T155 -168Q134 -211 87 -211Q64 -211 49 -198T34 -162Q34 -158 137 254Q153 299 179 334T232 390T277 419T311 434Q357 451 403 451Q435 451 455 449T506 435T560 400Q603 357 603 285Q603 172 520 82T307 -8ZM474 343Q474 364 458 382T409 400H406Q339 400 299 341Q281 313 264 257Q261 248 242 170T222 89Q222 84 230 74T260 54T308 43Q334 43 365 57T417 110Q437 145 456 228Q474 298 474 332V343Z"></path>
<path stroke-width="1" id="E1-MJMAIN-29" d="M60 749L64 750Q69 750 74 750H86L114 726Q208 641 251 514T294 250Q294 182 284 119T261 12T224 -76T186 -143T145 -194T113 -227T90 -246Q87 -249 86 -250H74Q66 -250 63 -250T58 -247T55 -238Q56 -237 66 -225Q221 -64 221 250T66 725Q56 737 55 738Q55 746 60 749Z"></path>
<path stroke-width="1" id="E1-MJMAIN-32" d="M109 429Q82 429 66 447T50 491Q50 562 103 614T235 666Q326 666 387 610T449 465Q449 422 429 383T381 315T301 241Q265 210 201 149L142 93L218 92Q375 92 385 97Q392 99 409 186V189H449V186Q448 183 436 95T421 3V0H50V19V31Q50 38 56 46T86 81Q115 113 136 137Q145 147 170 174T204 211T233 244T261 278T284 308T305 340T320 369T333 401T340 431T343 464Q343 527 309 573T212 619Q179 619 154 602T119 569T109 550Q109 549 114 549Q132 549 151 535T170 489Q170 464 154 447T109 429Z"></path>
<path stroke-width="1" id="E1-MJSZ1-28" d="M152 251Q152 646 388 850H416Q422 844 422 841Q422 837 403 816T357 753T302 649T255 482T236 250Q236 124 255 19T301 -147T356 -251T403 -315T422 -340Q422 -343 416 -349H388Q359 -325 332 -296T271 -213T212 -97T170 56T152 251Z"></path>
<path stroke-width="1" id="E1-MJSZ1-29" d="M305 251Q305 -145 69 -349H56Q43 -349 39 -347T35 -338Q37 -333 60 -307T108 -239T160 -136T204 27T221 250T204 473T160 636T108 740T60 807T35 839Q35 850 50 850H56H69Q197 743 256 566Q305 425 305 251Z"></path>
</defs>
<g stroke="currentColor" fill="currentColor" stroke-width="0" transform="matrix(1 0 0 -1 0 0)">
 <use xlink:href="#E1-MJMATHI-3C9" x="0" y="0"></use>
 <use xlink:href="#E1-MJMAIN-223C" x="900" y="0"></use>
 <use xlink:href="#E1-MJCAL-4E" x="1956" y="0"></use>
<g transform="translate(3102,0)">
 <use xlink:href="#E1-MJSZ1-28"></use>
<g transform="translate(458,0)">
 <use xlink:href="#E1-MJMATHBI-3BC" x="0" y="0"></use>
 <use xlink:href="#E1-MJMAIN-2C" x="708" y="0"></use>
<g transform="translate(1153,0)">
 <use xlink:href="#E1-MJMAIN-73"></use>
 <use xlink:href="#E1-MJMAIN-6F" x="394" y="0"></use>
 <use xlink:href="#E1-MJMAIN-66" x="895" y="0"></use>
 <use xlink:href="#E1-MJMAIN-74" x="1201" y="0"></use>
 <use xlink:href="#E1-MJMAIN-70" x="1591" y="0"></use>
 <use xlink:href="#E1-MJMAIN-6C" x="2147" y="0"></use>
 <use xlink:href="#E1-MJMAIN-75" x="2426" y="0"></use>
 <use xlink:href="#E1-MJMAIN-73" x="2982" y="0"></use>
</g>
 <use xlink:href="#E1-MJMAIN-28" x="4530" y="0"></use>
 <use xlink:href="#E1-MJMATHBI-3C1" x="4920" y="0"></use>
<g transform="translate(5532,0)">
 <use xlink:href="#E1-MJMAIN-29" x="0" y="0"></use>
 <use transform="scale(0.707)" xlink:href="#E1-MJMAIN-32" x="550" y="583"></use>
</g>
</g>
 <use xlink:href="#E1-MJSZ1-29" x="6834" y="-1"></use>
</g>
</g>
</svg>